# xmcd CD database file
#
# Track frame offsets:
#	150
#	16797
#	35472
#	47772
#	67347
#	84437
#	104939
#	123572
#
# Disc length: 1924 seconds
#
# Revision: 0
# Processed by: cddbd v1.5.2PL0 Copyright (c) Steve Scherf et al.
# Submitted via: CDex 1.51
#
DISCID=6e078208
DTITLE=Ryan Lamey - Felt
DYEAR=2006
DGENRE=Blues
TTITLE0=Effortlessly
TTITLE1=95
TTITLE2=I'm on fire
TTITLE3=Dry
TTITLE4=Intoxicant
TTITLE5=A Place Where Trouble Will Not Find Me
TTITLE6=I Hope Today Was The Worst Day Of Your Life
TTITLE7=DRS
EXTD=YEAR: 2006
EXTT0=
EXTT1=
EXTT2=
EXTT3=
EXTT4=
EXTT5=
EXTT6=
EXTT7=
PLAYORDER=
